HIERARCHY
ROOT Hips
{
 OFFSET 0.000000 0.000000 0.000000
 CHANNELS 6 Xposition Yposition Zposition Yrotation Xrotation Zrotation
 JOINT Chest
 {
  OFFSET 0.000000 9.585900 0.002600
  CHANNELS 3 Yrotation Xrotation Zrotation
  JOINT Chest2
  {
   OFFSET 0.000000 9.601200 -0.005300
   CHANNELS 3 Yrotation Xrotation Zrotation
   JOINT Chest3
   {
    OFFSET 0.000000 9.561800 0.000000
    CHANNELS 3 Yrotation Xrotation Zrotation
    JOINT Chest4
    {
     OFFSET 0.000000 9.552100 0.000000
     CHANNELS 3 Yrotation Xrotation Zrotation
     JOINT Neck
     {
      OFFSET 0.000000 14.453000 0.000000
      CHANNELS 3 Yrotation Xrotation Zrotation
      JOINT Head
      {
       OFFSET 0.000000 8.936500 -0.011300
       CHANNELS 3 Yrotation Xrotation Zrotation
       End Site
       {
        OFFSET 0.000000 17.073600 -0.006000
       }
      }
     }
     JOINT RightCollar
     {
      OFFSET -2.921100 9.558500 0.000000
      CHANNELS 3 Yrotation Xrotation Zrotation
      JOINT RightShoulder
      {
       OFFSET -13.519700 0.000000 0.000000
       CHANNELS 3 Yrotation Xrotation Zrotation
       JOINT RightElbow
       {
        OFFSET 0.000000 -29.696600 0.000000
        CHANNELS 3 Yrotation Xrotation Zrotation
        JOINT RightWrist
        {
         OFFSET 0.000000 -24.004700 0.000000
         CHANNELS 3 Yrotation Xrotation Zrotation
         End Site
         {
          OFFSET 0.000000 -17.728500 0.000000
         }
        }
       }
      }
     }
     JOINT LeftCollar
     {
      OFFSET 2.921100 9.558500 0.000000
      CHANNELS 3 Yrotation Xrotation Zrotation
      JOINT LeftShoulder
      {
       OFFSET 13.519700 0.000000 0.000000
       CHANNELS 3 Yrotation Xrotation Zrotation
       JOINT LeftElbow
       {
        OFFSET 0.000000 -29.696600 0.000000
        CHANNELS 3 Yrotation Xrotation Zrotation
        JOINT LeftWrist
        {
         OFFSET 0.000000 -24.004700 0.000000
         CHANNELS 3 Yrotation Xrotation Zrotation
         End Site
         {
          OFFSET 0.000000 -17.728500 0.000000
         }
        }
       }
      }
     }
    }
   }
  }
 }
 JOINT RightHip
 {
  OFFSET -7.771700 -0.012900 -0.001300
  CHANNELS 3 Yrotation Xrotation Zrotation
  JOINT RightKnee
  {
   OFFSET 0.000000 -40.869800 0.001200
   CHANNELS 3 Yrotation Xrotation Zrotation
   JOINT RightAnkle
   {
    OFFSET 0.000000 -39.717900 0.002100
    CHANNELS 3 Yrotation Xrotation Zrotation
    JOINT RightToe
    {
     OFFSET 0.000000 -4.965400 11.033500
     CHANNELS 3 Yrotation Xrotation Zrotation
     End Site
     {
      OFFSET 0.000000 -1.423100 5.872300
     }
    }
   }
  }
 }
 JOINT LeftHip
 {
  OFFSET 7.771700 -0.012900 -0.001300
  CHANNELS 3 Yrotation Xrotation Zrotation
  JOINT LeftKnee
  {
   OFFSET 0.000000 -40.869800 0.001200
   CHANNELS 3 Yrotation Xrotation Zrotation
   JOINT LeftAnkle
   {
    OFFSET 0.000000 -39.717900 0.002100
    CHANNELS 3 Yrotation Xrotation Zrotation
    JOINT LeftToe
    {
     OFFSET 0.000000 -4.965400 11.033500
     CHANNELS 3 Yrotation Xrotation Zrotation
     End Site
     {
      OFFSET 0.000000 -1.423100 5.872300
     }
    }
   }
  }
 }
}
MOTION
Frames: 11
Frame Time: 0.008333
-7.354955 52.342225 29.775774 173.201761 -38.424908 -1.378208 4.230276 21.856404 1.939720 0.477542 3.051461 0.383270 0.779684 4.937707 0.614819 3.288465 18.468361 2.706233 -0.104531 16.289322 -0.444904 -0.067951 -5.486544 -0.813728 -6.265668 -3.010393 -3.417459 -7.545162 -1.558610 2.715587 175.188162 -69.225103 -156.495183 7.186502 4.680599 8.756304 -4.332089 -0.619626 0.909918 15.213507 -2.512650 0.286638 179.175330 -65.390028 168.473914 -9.141196 -17.601697 29.570972 -5.447692 -42.819520 1.201235 -135.447906 84.528699 -130.234579 0.629389 -10.965956 -4.523931 0.657915 -1.135639 0.287235 -1.497243 -39.284214 2.914381 71.893598 82.120158 61.728584 -5.743418 -12.581993 8.763645 0.458524 1.580109 0.243786
-7.358332 52.340958 29.776804 173.201407 -38.415100 -1.370075 4.232489 21.858960 1.951566 0.473409 3.041963 0.379111 0.777089 4.932004 0.616854 3.285880 18.462691 2.713777 -0.096785 16.265957 -0.463430 -0.065737 -5.492779 -0.833527 -6.265937 -3.023527 -3.450286 -7.656434 -1.578452 2.630617 176.034601 -69.087392 -157.209580 6.964975 4.310060 8.286824 -4.347709 -0.691099 0.931201 15.232988 -2.566253 0.450064 178.838043 -65.168439 168.616565 -9.163476 -17.803779 29.659615 -5.474769 -42.833545 1.186205 -135.652855 84.544029 -130.451898 0.668145 -10.951042 -4.527055 0.617400 -1.145266 0.272183 -1.458714 -39.292059 2.899544 71.813838 82.130864 61.662257 -5.769474 -12.571476 8.753971 0.480849 1.572584 0.265003
-7.362342 52.338200 29.778726 173.225318 -38.393570 -1.374740 4.210576 21.841102 1.945967 0.471674 3.040089 0.380777 0.774547 4.926842 0.626992 3.276179 18.442195 2.740890 -0.088504 16.260492 -0.505869 -0.035959 -5.529807 -0.878734 -6.250549 -3.079198 -3.522566 -7.767202 -1.541055 2.560747 176.776076 -68.928254 -157.840384 6.749777 3.936866 7.813618 -4.362144 -0.748628 0.927474 15.244873 -2.618171 0.613847 178.482638 -64.949544 168.766174 -9.179639 -18.013321 29.740282 -5.510054 -42.857317 1.168949 -135.731745 84.544372 -130.530282 0.687418 -10.948999 -4.543728 0.608754 -1.148859 0.272158 -1.441180 -39.311943 2.890018 71.719801 82.142787 61.565332 -5.786636 -12.562772 8.763822 0.502663 1.565495 0.263702
-7.369193 52.333391 29.781915 173.253265 -38.355125 -1.366158 4.176740 21.810202 1.932086 0.470087 3.035688 0.372833 0.772631 4.922027 0.635956 3.270463 18.443795 2.728667 -0.079938 16.249000 -0.509357 0.047609 -5.619002 -0.957174 -6.237131 -3.149213 -3.553793 -7.868427 -1.508840 2.502353 177.384623 -68.751256 -158.361696 6.538374 3.557882 7.324226 -4.390436 -0.825863 0.964714 15.252570 -2.664163 0.779677 178.127174 -64.727427 168.914861 -9.183711 -18.223368 29.800001 -5.541995 -42.900377 1.129297 -135.777400 84.535176 -130.566287 0.694084 -10.959160 -4.576592 0.634910 -1.145059 0.278445 -1.415731 -39.347803 2.868691 71.619036 82.154841 61.430906 -5.770630 -12.552457 8.818296 0.465661 1.557427 0.245547
-7.372079 52.331262 29.781448 173.262191 -38.344062 -1.366184 4.168266 21.806466 1.939284 0.469242 3.034767 0.390279 0.768558 4.913276 0.617972 3.262317 18.432949 2.742355 -0.074516 16.249325 -0.535593 0.097004 -5.660826 -1.005602 -6.228280 -3.264009 -3.625532 -7.940845 -1.425023 2.462624 177.866968 -68.558598 -158.782354 6.333460 3.174025 6.817471 -4.404579 -0.853308 0.956447 15.236719 -2.747020 0.956458 177.775441 -64.499767 169.058912 -9.180781 -18.428528 29.839068 -5.574676 -42.909654 1.118319 -135.834346 84.536537 -130.620079 0.705969 -10.967443 -4.598270 0.641923 -1.141493 0.277332 -1.404601 -39.356819 2.866007 71.577186 82.164414 61.376899 -5.764901 -12.545772 8.840547 0.454770 1.547973 0.233321
-7.374122 52.328380 29.781414 173.274581 -38.326136 -1.372159 4.159102 21.795801 1.951975 0.467092 3.029993 0.383052 0.767374 4.910131 0.614396 3.259909 18.417208 2.762713 -0.042925 16.212872 -0.553927 0.075276 -5.620998 -1.015040 -6.226629 -3.322937 -3.675277 -7.997408 -1.398880 2.421626 178.233979 -68.349332 -159.108083 6.139492 2.790474 6.299915 -4.463952 -0.932762 0.979512 15.259796 -2.762396 1.118207 177.415656 -64.270478 169.200791 -9.181303 -18.627161 29.863122 -5.610549 -42.923760 1.112381 -135.910480 84.542302 -130.693169 0.719057 -10.982438 -4.611618 0.642541 -1.130933 0.271568 -1.398223 -39.373967 2.865268 71.538091 82.173583 61.340021 -5.780258 -12.545128 8.836890 0.468166 1.548612 0.244214
-7.376225 52.323721 29.783277 173.301020 -38.289863 -1.385230 4.138685 21.786202 1.975659 0.463587 3.007214 0.361987 0.764739 4.904602 0.623502 3.248720 18.404277 2.767985 -0.021153 16.191650 -0.573839 0.112970 -5.636680 -1.061590 -6.218931 -3.326657 -3.707819 -8.023754 -1.405492 2.400722 178.429929 -68.099659 -159.296413 5.964020 2.409645 5.781703 -4.525121 -1.004162 0.999125 15.290948 -2.779998 1.277349 177.044945 -64.043153 169.343929 -9.189862 -18.823787 29.872860 -5.651998 -42.956566 1.102073 -136.018390 84.550880 -130.793325 0.735856 -10.998620 -4.633686 0.634311 -1.118835 0.272785 -1.389227 -39.410137 2.869943 71.465666 82.192185 61.256931 -5.780903 -12.544787 8.847293 0.461678 1.549752 0.258782
-7.377117 52.321064 29.782631 173.312528 -38.271313 -1.390887 4.124210 21.781639 1.986149 0.466975 3.002557 0.361595 0.748621 4.893184 0.641069 3.221142 18.376202 2.775837 0.003002 16.193956 -0.622385 0.211079 -5.705136 -1.146363 -6.195466 -3.418042 -3.797712 -8.062411 -1.351016 2.378419 178.632496 -67.883287 -159.481857 5.809183 2.033211 5.277898 -4.559142 -1.035593 0.978176 15.314116 -2.818819 1.437239 176.677646 -63.816593 169.483087 -9.205633 -19.025161 29.877102 -5.669671 -42.973071 1.094927 -136.096356 84.554814 -130.860589 0.734197 -11.007745 -4.650260 0.637423 -1.114799 0.276555 -1.365454 -39.427525 2.873395 71.399182 82.215111 61.181832 -5.773391 -12.539635 8.874104 0.451224 1.540424 0.242575
-7.376371 52.317570 29.783385 173.325750 -38.242130 -1.403860 4.106638 21.763826 2.001906 0.454846 3.004188 0.376928 0.749480 4.878025 0.625029 3.200647 18.364460 2.775345 0.026725 16.178203 -0.643042 0.277777 -5.748623 -1.204269 -6.170087 -3.480506 -3.842119 -8.083575 -1.316415 2.363676 178.727825 -67.629641 -159.591121 5.674462 1.668062 4.801994 -4.596700 -1.078191 0.982046 15.334876 -2.858031 1.589643 176.338547 -63.588912 169.599048 -9.227060 -19.236862 29.892234 -5.692816 -43.000532 1.099724 -136.159338 84.559452 -130.918481 0.747363 -11.013049 -4.654604 0.622763 -1.110225 0.271823 -1.311057 -39.454248 2.885487 71.246201 82.255990 61.042118 -5.817947 -12.537797 8.895916 0.479204 1.542802 0.261924
-7.377851 52.313075 29.785261 173.354768 -38.201190 -1.409204 4.067968 21.733753 1.996984 0.456624 2.997565 0.369592 0.742062 4.873218 0.628255 3.175841 18.352598 2.778173 0.050759 16.178566 -0.666416 0.328088 -5.794490 -1.245960 -6.138204 -3.495915 -3.873935 -8.128554 -1.362879 2.354502 178.802114 -67.405366 -159.668155 5.556201 1.320945 4.363367 -4.628942 -1.118196 0.984986 15.344785 -2.897433 1.729458 176.054107 -63.359524 169.677251 -9.245137 -19.465877 29.921765 -5.709820 -43.040460 1.068165 -136.366549 84.574105 -131.103730 0.744805 -11.028030 -4.672236 0.627387 -1.100552 0.268537 -1.288170 -39.492707 2.876702 71.144601 82.273683 60.933620 -5.830458 -12.541328 8.917070 0.468715 1.550782 0.269228
-7.380158 52.309499 29.785947 173.381222 -38.168312 -1.402232 4.027036 21.711643 1.980159 0.458260 2.991291 0.361982 0.743625 4.870592 0.624695 3.152350 18.342019 2.785527 0.070312 16.175408 -0.684038 0.375765 -5.840427 -1.283970 -6.115212 -3.555796 -3.898156 -8.165282 -1.365588 2.348933 178.850297 -67.182244 -159.728580 5.447415 0.996580 3.968959 -4.663868 -1.160538 0.994954 15.336425 -2.935952 1.852060 175.832747 -63.129010 169.718683 -9.261787 -19.714727 29.968778 -5.714195 -43.072509 1.023752 -136.567259 84.587170 -131.284828 0.736384 -11.046104 -4.687715 0.637068 -1.088633 0.267204 -1.253576 -39.519786 2.863239 71.083012 82.279988 60.836605 -5.823891 -12.537008 8.972729 0.425501 1.545477 0.254729
